<svg fill="#0d141a" viewBox="0 0 183.908 22.747" height="100%" width="100%" xmlns="http://www.w3.org/2000/svg"><path preserveAspectRatio="none" d="M8.72 18.38L8.72 18.38Q6.85 18.38 5.26 17.77Q3.66 17.16 2.48 16.03Q1.31 14.90 0.66 13.39Q0 11.87 0 10.05L0 10.05Q0 8.23 0.66 6.72Q1.31 5.20 2.50 4.07Q3.68 2.94 5.27 2.33Q6.85 1.72 8.74 1.72L8.74 1.72Q10.83 1.72 12.52 2.45Q14.21 3.17 15.36 4.58L15.36 4.58L12.97 6.79Q12.14 5.84 11.13 5.37Q10.12 4.90 8.92 4.90L8.92 4.90Q7.80 4.90 6.85 5.27Q5.91 5.63 5.22 6.32Q4.53 7.01 4.15 7.96Q3.77 8.90 3.77 10.05L3.77 10.05Q3.77 11.20 4.15 12.14Q4.53 13.09 5.22 13.78Q5.91 14.47 6.85 14.83Q7.80 15.20 8.92 15.20L8.92 15.20Q10.12 15.20 11.13 14.73Q12.14 14.26 12.97 13.29L12.97 13.29L15.36 15.50Q14.21 16.90 12.52 17.64Q10.83 18.38 8.72 18.38ZM23.30 18.29L23.30 18.29Q21.32 18.29 19.79 17.46Q18.26 16.63 17.38 15.19Q16.49 13.75 16.49 11.91L16.49 11.91Q16.49 10.05 17.38 8.61Q18.26 7.18 19.79 6.36Q21.32 5.54 23.30 5.54L23.30 5.54Q25.25 5.54 26.80 6.36Q28.34 7.18 29.21 8.60Q30.08 10.03 30.08 11.91L30.08 11.91Q30.08 13.75 29.21 15.19Q28.34 16.63 26.80 17.46Q25.25 18.29 23.30 18.29ZM23.30 15.34L23.30 15.34Q24.20 15.34 24.91 14.93Q25.62 14.51 26.04 13.74Q26.45 12.97 26.45 11.91L26.45 11.91Q26.45 10.83 26.04 10.07Q25.62 9.31 24.91 8.90Q24.20 8.49 23.30 8.49L23.30 8.49Q22.40 8.49 21.69 8.90Q20.98 9.31 20.55 10.07Q20.13 10.83 20.13 11.91L20.13 11.91Q20.13 12.97 20.55 13.74Q20.98 14.51 21.69 14.93Q22.40 15.34 23.30 15.34ZM36.06 18.10L32.48 18.10L32.48 5.73L35.90 5.73L35.90 9.15L35.26 8.12Q35.93 6.88 37.17 6.21Q38.41 5.54 40.00 5.54L40.00 5.54Q41.47 5.54 42.63 6.13Q43.79 6.72 44.46 7.92Q45.13 9.13 45.13 11.02L45.13 11.02L45.13 18.10L41.54 18.10L41.54 11.57Q41.54 10.07 40.88 9.36Q40.23 8.65 39.03 8.65L39.03 8.65Q38.18 8.65 37.50 9.00Q36.82 9.36 36.44 10.10Q36.06 10.83 36.06 11.98L36.06 11.98L36.06 18.10ZM54.51 18.29L54.51 18.29Q52.39 18.29 50.80 17.46Q49.20 16.63 48.32 15.19Q47.45 13.75 47.45 11.91L47.45 11.91Q47.45 10.05 48.31 8.61Q49.17 7.18 50.67 6.36Q52.16 5.54 54.05 5.54L54.05 5.54Q55.87 5.54 57.33 6.31Q58.79 7.08 59.64 8.52Q60.49 9.96 60.49 11.96L60.49 11.96Q60.49 12.17 60.47 12.43Q60.44 12.70 60.42 12.93L60.42 12.93L50.37 12.93L50.37 10.83L58.53 10.83L57.16 11.45Q57.16 10.49 56.76 9.77Q56.37 9.06 55.68 8.66Q54.99 8.26 54.07 8.26L54.07 8.26Q53.15 8.26 52.45 8.66Q51.75 9.06 51.36 9.79Q50.97 10.51 50.97 11.50L50.97 11.50L50.97 12.05Q50.97 13.06 51.42 13.83Q51.87 14.60 52.68 15.01Q53.50 15.41 54.60 15.41L54.60 15.41Q55.59 15.41 56.34 15.11Q57.09 14.81 57.71 14.21L57.71 14.21L59.62 16.28Q58.77 17.25 57.48 17.77Q56.19 18.29 54.51 18.29ZM68.86 18.29L68.86 18.29Q66.86 18.29 65.30 17.47Q63.73 16.65 62.85 15.20Q61.96 13.75 61.96 11.91L61.96 11.91Q61.96 10.05 62.85 8.61Q63.73 7.18 65.30 6.36Q66.86 5.54 68.86 5.54L68.86 5.54Q70.82 5.54 72.27 6.36Q73.72 7.18 74.41 8.69L74.41 8.69L71.62 10.19Q71.14 9.31 70.41 8.90Q69.69 8.49 68.84 8.49L68.84 8.49Q67.92 8.49 67.18 8.90Q66.45 9.31 66.02 10.07Q65.60 10.83 65.60 11.91L65.60 11.91Q65.60 12.99 66.02 13.75Q66.45 14.51 67.18 14.93Q67.92 15.34 68.84 15.34L68.84 15.34Q69.69 15.34 70.41 14.94Q71.14 14.54 71.62 13.64L71.62 13.64L74.41 15.16Q73.72 16.65 72.27 17.47Q70.82 18.29 68.86 18.29ZM81.53 18.29L81.53 18.29Q79.35 18.29 78.13 17.17Q76.91 16.05 76.91 13.85L76.91 13.85L76.91 2.99L80.50 2.99L80.50 13.80Q80.50 14.58 80.91 15.01Q81.33 15.43 82.04 15.43L82.04 15.43Q82.89 15.43 83.49 14.97L83.49 14.97L84.46 17.50Q83.90 17.89 83.13 18.09Q82.36 18.29 81.53 18.29ZM83.58 8.49L75.00 8.49L75.00 5.73L83.58 5.73L83.58 8.49ZM97.43 18.10L94.07 18.10L94.07 15.69L93.84 15.16L93.84 10.83Q93.84 9.68 93.14 9.04Q92.44 8.39 90.99 8.39L90.99 8.39Q90.00 8.39 89.04 8.71Q88.09 9.02 87.42 9.54L87.42 9.54L86.13 7.04Q87.15 6.32 88.57 5.93Q90.00 5.54 91.47 5.54L91.47 5.54Q94.30 5.54 95.86 6.88Q97.43 8.21 97.43 11.04L97.43 11.04L97.43 18.10ZM90.30 18.29L90.30 18.29Q88.85 18.29 87.81 17.79Q86.78 17.30 86.23 16.45Q85.67 15.59 85.67 14.54L85.67 14.54Q85.67 13.43 86.22 12.60Q86.76 11.78 87.93 11.30Q89.10 10.83 90.99 10.83L90.99 10.83L94.28 10.83L94.28 12.93L91.38 12.93Q90.11 12.93 89.64 13.34Q89.17 13.75 89.17 14.38L89.17 14.38Q89.17 15.06 89.71 15.47Q90.25 15.87 91.19 15.87L91.19 15.87Q92.09 15.87 92.80 15.44Q93.52 15.02 93.84 14.19L93.84 14.19L94.39 15.85Q94.00 17.04 92.97 17.66Q91.93 18.29 90.30 18.29ZM114.75 18.10L107.43 18.10L107.43 2.00L114.75 2.00Q117.37 2.00 119.37 3.00Q121.37 4.00 122.50 5.80Q123.63 7.59 123.63 10.05L123.63 10.05Q123.63 12.49 122.50 14.29Q121.37 16.10 119.37 17.10Q117.37 18.10 114.75 18.10L114.75 18.10ZM111.16 5.06L111.16 15.04L114.56 15.04Q116.17 15.04 117.36 14.43Q118.54 13.82 119.20 12.70Q119.85 11.57 119.85 10.05L119.85 10.05Q119.85 8.51 119.20 7.39Q118.54 6.28 117.36 5.67Q116.17 5.06 114.56 5.06L114.56 5.06L111.16 5.06ZM129.77 18.10L126.18 18.10L126.18 5.73L129.77 5.73L129.77 18.10ZM127.97 4.00L127.97 4.00Q126.98 4.00 126.36 3.43Q125.74 2.85 125.74 2.00L125.74 2.00Q125.74 1.15 126.36 0.57Q126.98 0 127.97 0L127.97 0Q128.96 0 129.58 0.54Q130.20 1.08 130.20 1.93L130.20 1.93Q130.20 2.83 129.59 3.42Q128.98 4.00 127.97 4.00ZM138.92 22.75L138.92 22.75Q137.17 22.75 135.55 22.32Q133.93 21.90 132.85 21.04L132.85 21.04L134.27 18.47Q135.06 19.11 136.26 19.49Q137.47 19.87 138.64 19.87L138.64 19.87Q140.55 19.87 141.42 19.02Q142.28 18.17 142.28 16.49L142.28 16.49L142.28 14.63L142.51 11.52L142.46 8.39L142.46 5.73L145.87 5.73L145.87 16.03Q145.87 19.48 144.07 21.11Q142.28 22.75 138.92 22.75ZM138.37 17.50L138.37 17.50Q136.64 17.50 135.25 16.76Q133.86 16.01 133.02 14.66Q132.18 13.32 132.18 11.52L132.18 11.52Q132.18 9.71 133.02 8.36Q133.86 7.01 135.25 6.28Q136.64 5.54 138.37 5.54L138.37 5.54Q139.93 5.54 141.13 6.18Q142.32 6.81 142.99 8.13Q143.66 9.45 143.66 11.52L143.66 11.52Q143.66 13.57 142.99 14.89Q142.32 16.21 141.13 16.86Q139.93 17.50 138.37 17.50ZM139.08 14.56L139.08 14.56Q140.02 14.56 140.76 14.18Q141.50 13.80 141.91 13.11Q142.32 12.42 142.32 11.52L142.32 11.52Q142.32 10.60 141.91 9.92Q141.50 9.25 140.76 8.87Q140.02 8.49 139.08 8.49L139.08 8.49Q138.14 8.49 137.40 8.87Q136.67 9.25 136.24 9.92Q135.81 10.60 135.81 11.52L135.81 11.52Q135.81 12.42 136.24 13.11Q136.67 13.80 137.40 14.18Q138.14 14.56 139.08 14.56ZM152.79 18.10L149.20 18.10L149.20 5.73L152.79 5.73L152.79 18.10ZM150.99 4.00L150.99 4.00Q150.01 4.00 149.38 3.43Q148.76 2.85 148.76 2.00L148.76 2.00Q148.76 1.15 149.38 0.57Q150.01 0 150.99 0L150.99 0Q151.98 0 152.60 0.54Q153.23 1.08 153.23 1.93L153.23 1.93Q153.23 2.83 152.62 3.42Q152.01 4.00 150.99 4.00ZM161.18 18.29L161.18 18.29Q159.00 18.29 157.78 17.17Q156.56 16.05 156.56 13.85L156.56 13.85L156.56 2.99L160.15 2.99L160.15 13.80Q160.15 14.58 160.56 15.01Q160.98 15.43 161.69 15.43L161.69 15.43Q162.54 15.43 163.14 14.97L163.14 14.97L164.10 17.50Q163.55 17.89 162.78 18.09Q162.01 18.29 161.18 18.29ZM163.23 8.49L154.65 8.49L154.65 5.73L163.23 5.73L163.23 8.49ZM177.08 18.10L173.72 18.10L173.72 15.69L173.49 15.16L173.49 10.83Q173.49 9.68 172.79 9.04Q172.09 8.39 170.64 8.39L170.64 8.39Q169.65 8.39 168.69 8.71Q167.74 9.02 167.07 9.54L167.07 9.54L165.78 7.04Q166.80 6.32 168.22 5.93Q169.65 5.54 171.12 5.54L171.12 5.54Q173.95 5.54 175.51 6.88Q177.08 8.21 177.08 11.04L177.08 11.04L177.08 18.10ZM169.95 18.29L169.95 18.29Q168.50 18.29 167.46 17.79Q166.43 17.30 165.88 16.45Q165.32 15.59 165.32 14.54L165.32 14.54Q165.32 13.43 165.86 12.60Q166.40 11.78 167.58 11.30Q168.75 10.83 170.64 10.83L170.64 10.83L173.93 10.83L173.93 12.93L171.03 12.93Q169.76 12.93 169.29 13.34Q168.82 13.75 168.82 14.38L168.82 14.38Q168.82 15.06 169.36 15.47Q169.90 15.87 170.84 15.87L170.84 15.87Q171.74 15.87 172.45 15.44Q173.17 15.02 173.49 14.19L173.49 14.19L174.04 15.85Q173.65 17.04 172.61 17.66Q171.58 18.29 169.95 18.29ZM183.91 18.10L180.32 18.10L180.32 1.04L183.91 1.04L183.91 18.10Z"></path></svg>