<?xml version="1.0" encoding="utf-8"?>
<!-- Generator: Adobe Illustrator 27.6.1, SVG Export Plug-In . SVG Version: 6.00 Build 0)  -->
<svg version="1.1" id="Capa_1" xmlns="http://www.w3.org/2000/svg" xmlns:xlink="http://www.w3.org/1999/xlink" x="0px" y="0px"
	 viewBox="0 0 1080 1080" style="enable-background:new 0 0 1080 1080;" xml:space="preserve">
<style type="text/css">
	.st0{fill:#0D141A;}
</style>
<path class="st0" d="M35.851,536.018v2.083c-0.197,13.821,11.774,16.345,25.852,16.535c11.841,0,21.708-2.02,24.865-10.351h35.324
	c-2.171,28.652-28.352,37.235-60.189,37.235c-33.153-0.063-60.518-9.277-60.387-41.4v-6.184
	c-0.131-32.061,27.233-41.274,60.387-41.4c31.838,0.062,58.019,8.646,60.189,37.234H86.567c-3.223-8.33-13.024-10.286-24.865-10.286
	C47.625,519.672,35.653,522.071,35.851,536.018z M166.624,494.618h-34.469v84.82h103.473v-26.885h-69.004V494.618z M247.272,579.438
	h34.469v-84.82h-34.469V579.438z M352.259,519.484c11.841,0,21.642,1.956,24.865,10.286h35.324
	c-2.171-28.589-28.352-37.172-60.189-37.234c-33.153,0.126-60.518,9.34-60.387,41.4v6.184c-0.131,32.123,27.233,41.337,60.387,41.4
	c31.838,0,58.019-8.583,60.189-37.235h-35.324c-3.158,8.331-13.024,10.351-24.865,10.351c-14.077-0.189-26.049-2.714-25.852-16.535
	v-2.083C326.21,522.071,338.182,519.672,352.259,519.484z M504.674,494.618l-32.43,28.968h-15.064v-28.968h-34.469v84.82h34.469
	v-28.967h15.064l32.43,28.967h45.257l-45.85-42.41l45.85-42.41H504.674z M712.148,494.745l-20.523,53.707l-20.458-53.707h-38.811
	l-20.523,53.707l-20.458-53.707h-38.811l38.811,84.82h40.981l19.405-42.41l19.405,42.41h40.981l38.811-84.82H712.148z
	 M816.479,494.745l47.428,84.82h-38.811l-6.973-14.516h-44.271l-6.973,14.516h-38.811l47.428-84.82H816.479z M808.125,544.349
	l-12.104-25.054l-12.169,25.054H808.125z M906.797,553.626l-26.971-58.881h-38.811l45.257,84.82h40.981l45.323-84.82h-38.811
	L906.797,553.626z M1078.683,516.455v-21.71H975.21v84.82h103.473v-21.773h-69.003v-10.855h69.003v-19.626h-69.003v-10.854H1078.683
	z"/>
</svg>
